# ProBuilder 4.4.0
# https://unity3d.com/unity/features/worldbuilding/probuilder
# 28.08.2021 11:08:36

mtllib ./Pipe2.mtl
o Pipe2

g Pipe
v -3.236068 -0.4000001 2.351141
v -4 -0.4000001 -1.192093E-07
v -3.236068 -8.940697E-08 2.351141
v -4 -8.940697E-08 -1.192093E-07
v -3.8 -0.4000001 -1.192093E-07
v -3.074265 -0.4000001 2.233584
v -3.8 -8.940697E-08 -1.192093E-07
v -3.074265 -8.940697E-08 2.233584
v -1.236068 -0.4000001 3.804226
v -1.236068 -8.940697E-08 3.804226
v -1.174264 -0.4000001 3.614015
v -1.174264 -8.940697E-08 3.614015
v 1.236068 -0.4000001 3.804226
v 1.236068 -8.940697E-08 3.804226
v 1.174264 -0.4000001 3.614015
v 1.174264 -8.940697E-08 3.614015
v 3.236068 -0.4000001 2.35114
v 3.236068 -8.940697E-08 2.35114
v 3.074265 -0.4000001 2.233583
v 3.074265 -8.940697E-08 2.233583
v 4 -0.4000001 -4.689004E-07
v 4 -8.940697E-08 -4.689004E-07
v 3.8 -0.4000001 -4.514158E-07
v 3.8 -8.940697E-08 -4.514158E-07
v 3.236068 -0.4000001 -2.35114
v 3.236068 -8.940697E-08 -2.35114
v 3.074265 -0.4000001 -2.233583
v 3.074265 -8.940697E-08 -2.233583
v 1.236068 -0.4000001 -3.804226
v 1.236068 -8.940697E-08 -3.804226
v 1.174265 -0.4000001 -3.614015
v 1.174265 -8.940697E-08 -3.614015
v -1.236068 -0.4000001 -3.804226
v -1.236068 -8.940697E-08 -3.804226
v -1.174265 -0.4000001 -3.614015
v -1.174265 -8.940697E-08 -3.614015
v -3.236068 -0.4000001 -2.351141
v -3.236068 -8.940697E-08 -2.351141
v -3.074264 -0.4000001 -2.233584
v -3.074264 -8.940697E-08 -2.233584
v -3.236068 0.3999999 2.351141
v -4 0.3999999 -1.192093E-07
v -3.8 0.3999999 -1.192093E-07
v -3.074265 0.3999999 2.233584
v -1.236068 0.3999999 3.804226
v -1.174264 0.3999999 3.614015
v 1.236068 0.3999999 3.804226
v 1.174264 0.3999999 3.614015
v 3.236068 0.3999999 2.35114
v 3.074265 0.3999999 2.233583
v 4 0.3999999 -4.689004E-07
v 3.8 0.3999999 -4.514158E-07
v 3.236068 0.3999999 -2.35114
v 3.074265 0.3999999 -2.233583
v 1.236068 0.3999999 -3.804226
v 1.174265 0.3999999 -3.614015
v -1.236068 0.3999999 -3.804226
v -1.174265 0.3999999 -3.614015
v -3.236068 0.3999999 -2.351141
v -3.074264 0.3999999 -2.233584

vt 1.236068 -0.4000001
vt -1.236068 -0.4000001
vt 1.236068 -8.940697E-08
vt -1.236068 -8.940697E-08
vt 1.174265 -0.4000001
vt -1.174265 -0.4000001
vt 1.174265 -8.940697E-08
vt -1.174265 -8.940697E-08
vt 1.236068 0.3999999
vt -1.236068 0.3999999
vt 1.174265 0.3999999
vt -1.174265 0.3999999
vt -4 -1.192093E-07
vt -3.236068 2.351141
vt -3.8 -1.192093E-07
vt -3.074265 2.233584
vt 3.236068 2.351141
vt 4 -1.192093E-07
vt 3.074265 2.233584
vt 3.8 -1.192093E-07
vt -1.236068 3.804226
vt -1.174264 3.614015
vt 1.236068 3.804226
vt 1.174264 3.614015
vt 3.8 -4.514158E-07
vt -3.8 -4.514158E-07
vt 3.236068 -2.35114
vt 3.074265 -2.233583
vt -3.236068 -2.35114
vt -3.074265 -2.233583
vt 1.236068 -3.804226
vt 1.174265 -3.614015
vt -1.236068 -3.804226
vt -1.174265 -3.614015

vn -0.9510565 0 0.309017
vn 0.9510565 0 -0.309017
vn -0.5877852 0 0.8090171
vn 0.5877852 0 -0.8090171
vn 0 0 1
vn 0 0 -1
vn 0.5877852 0 0.809017
vn -0.5877853 0 -0.8090169
vn 0.9510565 0 0.3090169
vn -0.9510565 0 -0.3090171
vn 0 -1 0
vn 0 1 0

usemtl ProBuilderDefault
f 3/3/1 4/4/1 2/2/1 1/1/1
f 7/7/2 8/8/2 6/6/2 5/5/2
f 10/3/3 3/4/3 1/2/3 9/1/3
f 8/7/4 12/8/4 11/6/4 6/5/4
f 14/3/5 10/4/5 9/2/5 13/1/5
f 12/7/6 16/8/6 15/6/6 11/5/6
f 18/3/7 14/4/7 13/2/7 17/1/7
f 16/7/8 20/8/8 19/6/8 15/5/8
f 22/3/9 18/4/9 17/2/9 21/1/9
f 20/7/10 24/8/10 23/6/10 19/5/10
f 26/3/2 22/4/2 21/2/2 25/1/2
f 24/7/1 28/8/1 27/6/1 23/5/1
f 30/3/4 26/4/4 25/2/4 29/1/4
f 28/7/3 32/8/3 31/6/3 27/5/3
f 34/3/6 30/4/6 29/2/6 33/1/6
f 32/7/5 36/8/5 35/6/5 31/5/5
f 38/3/8 34/4/8 33/2/8 37/1/8
f 36/7/7 40/8/7 39/6/7 35/5/7
f 4/3/10 38/4/10 37/2/10 2/1/10
f 40/7/9 7/8/9 5/6/9 39/5/9
f 41/9/1 42/10/1 4/4/1 3/3/1
f 43/11/2 44/12/2 8/8/2 7/7/2
f 45/9/3 41/10/3 3/4/3 10/3/3
f 44/11/4 46/12/4 12/8/4 8/7/4
f 47/9/5 45/10/5 10/4/5 14/3/5
f 46/11/6 48/12/6 16/8/6 12/7/6
f 49/9/7 47/10/7 14/4/7 18/3/7
f 48/11/8 50/12/8 20/8/8 16/7/8
f 51/9/9 49/10/9 18/4/9 22/3/9
f 50/11/10 52/12/10 24/8/10 20/7/10
f 53/9/2 51/10/2 22/4/2 26/3/2
f 52/11/1 54/12/1 28/8/1 24/7/1
f 55/9/4 53/10/4 26/4/4 30/3/4
f 54/11/3 56/12/3 32/8/3 28/7/3
f 57/9/6 55/10/6 30/4/6 34/3/6
f 56/11/5 58/12/5 36/8/5 32/7/5
f 59/9/8 57/10/8 34/4/8 38/3/8
f 58/11/7 60/12/7 40/8/7 36/7/7
f 42/9/10 59/10/10 38/4/10 4/3/10
f 60/11/9 43/12/9 7/8/9 40/7/9
f 5/15/11 6/16/11 1/14/11 2/13/11
f 44/19/12 43/20/12 42/18/12 41/17/12
f 6/16/11 11/22/11 9/21/11 1/14/11
f 46/24/12 44/19/12 41/17/12 45/23/12
f 11/22/11 15/24/11 13/23/11 9/21/11
f 48/22/12 46/24/12 45/23/12 47/21/12
f 15/24/11 19/19/11 17/17/11 13/23/11
f 50/16/12 48/22/12 47/21/12 49/14/12
f 19/19/11 23/25/11 21/18/11 17/17/11
f 52/26/12 50/16/12 49/14/12 51/13/12
f 23/25/11 27/28/11 25/27/11 21/18/11
f 54/30/12 52/26/12 51/13/12 53/29/12
f 27/28/11 31/32/11 29/31/11 25/27/11
f 56/34/12 54/30/12 53/29/12 55/33/12
f 31/32/11 35/34/11 33/33/11 29/31/11
f 58/32/12 56/34/12 55/33/12 57/31/12
f 35/34/11 39/30/11 37/29/11 33/33/11
f 60/28/12 58/32/12 57/31/12 59/27/12
f 39/30/11 5/15/11 2/13/11 37/29/11
f 43/20/12 60/28/12 59/27/12 42/18/12

